<svg width="200" height="200" viewBox="0 0 200 200" fill="none" xmlns="http://www.w3.org/2000/svg">
<circle cx="100" cy="100" r="99.5" stroke="black"/>
<path d="M139.941 16.6607C139.753 16.1412 139.18 15.8719 138.661 16.0593L130.195 19.1127C129.675 19.3001 129.406 19.8731 129.593 20.3927C129.78 20.9122 130.354 21.1815 130.873 20.9941L138.399 18.28L141.113 25.8055C141.3 26.325 141.873 26.5943 142.393 26.4069C142.912 26.2195 143.181 25.6465 142.994 25.1269L139.941 16.6607ZM100.905 100.425L139.905 17.4253L138.095 16.5747L99.0949 99.5747L100.905 100.425Z" fill="black"/>
<path d="M136.977 77.2152C137.095 76.6758 136.755 76.1423 136.215 76.0234L127.426 74.0868C126.887 73.968 126.353 74.3089 126.234 74.8482C126.115 75.3876 126.456 75.9211 126.996 76.04L134.808 77.7614L133.087 85.574C132.968 86.1133 133.309 86.6469 133.848 86.7657C134.388 86.8846 134.921 86.5437 135.04 86.0044L136.977 77.2152ZM100.538 100.843L136.538 77.8427L135.462 76.1573L99.4616 99.1573L100.538 100.843Z" fill="black"/>
</svg>
